<?xml version="1.0" encoding="UTF-8" standalone="no"?>
<svg
   xmlns:dc="http://purl.org/dc/elements/1.1/"
   xmlns:cc="http://creativecommons.org/ns#"
   xmlns:rdf="http://www.w3.org/1999/02/22-rdf-syntax-ns#"
   xmlns:svg="http://www.w3.org/2000/svg"
   xmlns="http://www.w3.org/2000/svg"
   xmlns:sodipodi="http://sodipodi.sourceforge.net/DTD/sodipodi-0.dtd"
   xmlns:inkscape="http://www.inkscape.org/namespaces/inkscape"
   width="6.94444in"
   height="6.77778in"
   viewBox="0 0 500 488"
   version="1.1"
   id="svg4642"
   sodipodi:docname="octopus_full_logo.svg"
   inkscape:version="0.92.4 (5da689c313, 2019-01-14)"
   inkscape:export-xdpi="150.08543"
   inkscape:export-ydpi="150.08543"
   inkscape:label="full logo">
  <metadata
     id="metadata4648">
    <rdf:RDF>
      <cc:Work
         rdf:about="">
        <dc:format>image/svg+xml</dc:format>
        <dc:type
           rdf:resource="http://purl.org/dc/dcmitype/StillImage" />
        <dc:title></dc:title>
      </cc:Work>
    </rdf:RDF>
  </metadata>
  <defs
     id="defs4646">
    <meshgradient
       inkscape:collect="always"
       id="meshgradient4598"
       gradientUnits="userSpaceOnUse"
       gradientTransform="matrix(0.11039626,0.05892413,-0.05380376,0.14389668,162.66597,354.27001)"
       x="-9.2299042"
       y="61.826481">
      <meshrow
         id="meshrow4610">
        <meshpatch
           id="meshpatch4608">
          <stop
             path="c 36.2588,0  72.5175,0  108.776,0"
             style="stop-color:#ffffff;stop-opacity:1"
             id="stop4600" />
          <stop
             path="c 0,99.1128  0,198.226  0,297.338"
             style="stop-color:#000000;stop-opacity:1"
             id="stop4602" />
          <stop
             path="c -36.2588,0  -72.5175,0  -108.776,0"
             style="stop-color:#ffffff;stop-opacity:1"
             id="stop4604" />
          <stop
             path="c 0,-99.1128  0,-198.226  0,-297.338"
             style="stop-color:#000000;stop-opacity:1"
             id="stop4606" />
        </meshpatch>
      </meshrow>
    </meshgradient>
  </defs>
  <sodipodi:namedview
     pagecolor="#ffffff"
     bordercolor="#666666"
     borderopacity="1"
     objecttolerance="10"
     gridtolerance="10"
     guidetolerance="10"
     inkscape:pageopacity="0"
     inkscape:pageshadow="2"
     inkscape:window-width="1600"
     inkscape:window-height="837"
     id="namedview4644"
     showgrid="false"
     inkscape:zoom="1"
     inkscape:cx="240.79486"
     inkscape:cy="328.33933"
     inkscape:window-x="-8"
     inkscape:window-y="-8"
     inkscape:window-maximized="1"
     inkscape:current-layer="svg4642" />
  <g
     inkscape:groupmode="layer"
     id="layer6"
     inkscape:label="circle"
     style="display:inline" />
  <g
     inkscape:groupmode="layer"
     id="layer1"
     inkscape:label="body"
     style="display:inline" />
  <g
     inkscape:groupmode="layer"
     id="layer2"
     inkscape:label="bottle_l" />
  <g
     inkscape:groupmode="layer"
     id="layer5"
     inkscape:label="bottle_r"
     style="display:inline" />
  <g
     id="g4605"
     style="display:inline">
    <g
       id="g4562"
       style="display:inline">
      <g
         id="g2368"
         transform="matrix(0.92111158,0,0,0.96492249,11.900623,-6.4256802)"
         inkscape:export-xdpi="105.44708"
         inkscape:export-ydpi="105.44708"
         style="display:inline;opacity:0.99900004">
        <g
           style="display:inline;stroke:url(#meshgradient4887);stroke-opacity:1"
           id="g4751"
           transform="matrix(0.75000011,0,0,0.75000011,-103.13591,62.20148)" />
        <g
           style="display:inline;stroke:url(#meshgradient4889);stroke-opacity:1"
           id="g4753"
           transform="matrix(0.75000011,0,0,0.75000011,-103.13591,62.20148)" />
        <g
           style="display:inline;stroke:url(#meshgradient4891);stroke-opacity:1"
           id="g4755"
           transform="matrix(0.75000011,0,0,0.75000011,-103.13591,62.20148)" />
        <g
           style="display:inline;stroke:url(#meshgradient4893);stroke-opacity:1"
           id="g4757"
           transform="matrix(0.75000011,0,0,0.75000011,-103.13591,62.20148)" />
        <g
           style="display:inline;stroke:url(#meshgradient4895);stroke-opacity:1"
           id="g4759"
           transform="matrix(0.75000011,0,0,0.75000011,-103.13591,62.20148)" />
        <g
           style="display:inline;stroke:url(#meshgradient4897);stroke-opacity:1"
           id="g4761"
           transform="matrix(0.75000011,0,0,0.75000011,-103.13591,62.20148)" />
        <g
           style="display:inline;stroke:url(#meshgradient4899);stroke-opacity:1"
           id="g4763"
           transform="matrix(0.75000011,0,0,0.75000011,-103.13591,62.20148)" />
        <g
           style="display:inline;stroke:url(#meshgradient4901);stroke-opacity:1"
           id="g4765"
           transform="matrix(0.75000011,0,0,0.75000011,-103.13591,62.20148)" />
        <g
           style="display:inline;stroke:url(#meshgradient4903);stroke-opacity:1"
           id="g4767"
           transform="matrix(0.75000011,0,0,0.75000011,-103.13591,62.20148)" />
        <g
           style="display:inline;stroke:url(#meshgradient4905);stroke-opacity:1"
           id="g4769"
           transform="matrix(0.75000011,0,0,0.75000011,-103.13591,62.20148)" />
        <g
           style="display:inline;stroke:url(#meshgradient4907);stroke-opacity:1"
           id="g4771"
           transform="matrix(0.75000011,0,0,0.75000011,-103.13591,62.20148)" />
        <g
           style="display:inline;stroke:url(#meshgradient4909);stroke-opacity:1"
           id="g4773"
           transform="matrix(0.75000011,0,0,0.75000011,-103.13591,62.20148)" />
        <g
           style="display:inline;stroke:url(#meshgradient4911);stroke-opacity:1"
           id="g4775"
           transform="matrix(0.75000011,0,0,0.75000011,-103.13591,62.20148)" />
        <g
           style="display:inline;stroke:url(#meshgradient4913);stroke-opacity:1"
           id="g4777"
           transform="matrix(0.75000011,0,0,0.75000011,-103.13591,62.20148)" />
        <g
           style="display:inline;stroke:url(#meshgradient4915);stroke-opacity:1"
           id="g4779"
           transform="matrix(0.75000011,0,0,0.75000011,-103.13591,62.20148)" />
        <ellipse
           style="display:inline;fill:#000000;fill-opacity:0;stroke:#fc9816;stroke-width:8.00853443;stroke-miterlimit:4;stroke-dasharray:none;stroke-dashoffset:80.08535004;stroke-opacity:1"
           ry="182.62503"
           rx="191.62503"
           cy="254.37518"
           cx="251.62503"
           id="path77" />
      </g>
    </g>
    <path
       id="chemin"
       d="m 197.46267,151.55803 c -1.66076,15.13768 5.93133,33.38053 10.20187,40.0899 4.27055,4.3805 -2.4959,3.57649 0.12337,9.70365 8.09237,3.01622 6.80894,11.78583 4.14718,13.97324 -3.78714,2.35446 -19.68474,0.51823 -24.91153,0.14786 -9.80709,-0.19407 -16.61038,2.84287 -20.9948,4.68194 -3.40695,1.4232 -18.25076,12.08086 -21.5723,28.48463 2.97041,3.23455 5.56645,6.3198 10.30073,7.34845 6.40583,-19.86937 20.04367,-23.502 24.67428,-24.5918 5.28712,-0.93483 14.29308,-1.0777 18.0312,2.41204 -5.4568,12.01404 -8.30384,13.40027 -14.82354,20.1004 -4.74506,4.15871 -16.96831,11.08988 -32.62699,5.203 -12.45102,-6.24729 -24.5604,-28.21448 -27.91989,-31.53221 -6.49124,-6.41365 -14.31108,-9.48184 -25.224705,-7.18993 -3.95737,1.57106 -13.28615,7.18069 -12.01447,18.03952 0.93003,8.77025 4.06176,13.86235 14.62425,14.7865 13.409515,-2.07934 12.688275,-17.91014 0,-17.79 10.676365,4.85182 5.931315,14.32442 -2.60978,12.81804 -2.13527,-0.46207 -7.35483,-5.54494 -6.40582,-11.31166 0,0 0.13721,-3.57559 2.18244,-6.52204 1.75814,-2.53285 4.92625,-4.60079 10.629195,-3.53279 9.13898,1.95921 12.98247,8.63163 15.94338,13.40027 l 11.85315,19.40728 c 0,0 12.6598,17.66987 34.12642,17.54973 7.46872,-0.16635 15.90542,-2.77247 22.77626,-5.54494 14.12128,-5.18451 30.84285,-19.74922 30.84285,-19.74922 -1.82211,13.42799 -3.20766,22.42003 4.63117,36.0421 4.49831,7.05131 14.23516,18.7234 19.30288,23.45508 4.95384,6.64469 9.04407,16.40378 2.63825,29.34196 l 8.06659,7.62429 c 2.81856,-4.50988 9.60399,-14.55546 8.90172,-24.72118 -2.14477,-16.86585 -4.75454,-16.14501 -13.00145,-28.87988 -5.83642,-9.01977 -19.33135,-26.87446 -13.50442,-37.87193 3.79605,-7.17144 12.43204,-7.17144 16.22808,0 3.33103,6.28427 -0.0475,16.38529 -6.21602,25.8579 l 10.43912,14.7865 c 0,0 11.0275,-11.90313 12.56491,-20.33144 2.73315,-9.01052 0.61686,-14.79575 0,-24.95222 6.58613,3.41938 8.96816,6.7371 14.95641,10.76642 9.95512,6.70013 24.81663,13.28012 37.01142,14.10263 18.39183,1.3585 26.68617,-6.61696 30.13109,-9.85151 9.14618,-8.08856 12.53996,-20.3117 16.12241,-27.77456 2.68329,-4.65701 4.87919,-11.38194 17.33021,-13.35964 9.37623,-1.37699 16.90188,7.23615 13.27666,15.95094 -1.29065,3.10517 -5.57069,7.28236 -12.21377,5.54494 -3.43542,-3.12365 -4.14717,-12.01403 6.5292,-10.97898 -10.20186,-4.3805 -12.57439,4.15871 -12.22326,7.85533 0,9.48185 13.28615,10.05482 17.80344,5.43404 15.0608,-13.75144 1.93598,-29.91494 -12.22326,-30.86682 -6.09264,-0.41587 -11.30271,1.71893 -16.09522,5.203 -5.11059,4.56763 -7.44668,6.73172 -12.84904,14.90234 -9.56515,15.93725 -10.01995,16.15815 -18.98077,20.35422 -12.64876,3.73219 -19.69198,0.46208 -29.65659,-4.97196 -12.41363,-9.55651 -15.30754,-13.28937 -16.73106,-19.40728 3.91942,-4.50988 13.05839,-4.2696 17.0822,-3.58572 17.08219,2.43052 22.54849,13.05832 25.03489,24.37924 5.00979,-0.9213 7.85894,-2.07078 11.74012,-6.81741 1.53739,-7.62429 -11.26561,-22.18262 -18.14593,-26.9143 -9.49012,-6.46909 -23.96252,-6.58923 -23.96252,-6.58923 0,0 -21.55204,1.28457 -22.77626,0.8225 -4.38443,-1.9777 -7.35483,-9.13067 0.94901,-16.52392 1.42352,-6.00702 -4.38443,-3.58573 0,-9.59274 6.28245,-7.85533 9.72736,-28.87989 9.45215,-35.11795 0.33215,-7.39325 -0.94901,-15.06374 -2.95143,-22.17975 -1.0534,-3.75207 -5.66559,-24.37924 -26.42996,-32.54878 -12.86858,-5.960807 -29.24851,-4.352777 -40.80746,3.70587 -21.11549,14.62939 -22.70033,40.8015 -22.77626,47.32604 z m 15.42143,110.89876 c 0,0 -7.58034,5.64726 -16.39494,10.51403 -5.21956,7.28235 -5.78344,24.95509 -5.66956,31.99716 -1.18626,16.17274 -7.74392,25.71003 -14.23516,29.1941 -10.12454,5.9871 -20.09212,-3.41722 -18.48673,-13.48345 1.43301,-6.58923 7.42311,-15.14402 -1.67975,-24.84131 -14.70457,-9.27078 -19.90981,8.40768 -12.21376,14.10262 -4.17041,-13.61353 5.09534,-14.03016 9.4901,-8.55768 4.34831,7.04493 -0.72125,14.37987 -2.02139,18.37222 -4.74505,14.4538 4.74505,27.49365 23.60189,25.76548 21.04978,-4.31508 25.00148,-18.90394 29.0682,-41.58704 2.72239,-13.6456 4.86843,-20.57171 8.48416,-26.68963 -1.4431,-7.04143 -0.20718,-11.51782 0.0569,-14.7865 z m 61.44845,-0.92416 c 0,0 0,12.12493 0.1898,15.62749 8.71192,15.10071 11.10343,37.97358 11.10343,37.97358 0.33216,3.46558 3.77706,19.0561 10.17339,23.45509 4.86843,5.08285 27.40743,14.32441 38.51086,-1.31231 8.11404,-8.63162 -1.15779,-25.75623 -1.67975,-27.72468 -0.88258,-3.29925 0.41757,-7.32856 3.56828,-9.03825 3.30256,-1.80211 6.43954,-1.33863 8.25639,3.54876 0.25624,1.54334 -0.40807,3.15137 -0.84462,4.6023 6.7564,-6.27149 -0.12337,-13.52965 -7.59209,-12.36522 -2.74263,0.43436 -5.28598,1.98694 -7.13655,4.14947 -7.01319,9.50032 5.96928,21.21863 0,30.35852 -6.86135,8.70556 -24.76918,7.31932 -29.29596,-16.59784 0,0 -5.21007,-36.85535 -5.21007,-40.77377 -4.38443,-1.62652 -20.04311,-11.90314 -20.04311,-11.90314 z m -163.11597,10.16572 c -3.39169,-19.31532 -20.159578,-5.35977 -11.739255,8.42831 2.249155,3.21606 7.117575,10.05482 22.178375,10.05482 13.28615,-2.54143 15.99083,-5.54494 22.66238,-13.86235 l -7.59209,-4.62078 c -4.74505,9.35247 -24.19977,17.66987 -35.17982,2.77247 -2.865735,-6.99662 4.09972,-15.9417 9.67041,-2.77247 z m 240.13584,-0.32702 -7.74209,4.9478 c 5.09619,6.34896 17.85967,14.74741 32.38025,12.47611 8.93912,-1.6087 14.26915,-9.14701 13.88403,-16.98599 -1.04391,-9.62971 -12.93502,-9.81454 -13.0489,-0.1109 2.4864,-8.20651 9.0156,-5.54493 9.49011,-1.84831 0.949,6.00702 -3.73627,11.64156 -13.17228,11.90313 -13.87453,1.38624 -21.79112,-10.38184 -21.79112,-10.38184 z m -120.22437,32.7208 c -1.42352,6.18261 -4.51176,12.76974 -5.02423,19.35898 -1.11983,7.74442 2.08782,16.63481 3.98585,19.75846 3.43542,5.65583 14.11178,24.95222 36.76467,20.33143 5.21957,-2.77247 7.00371,-7.17145 9.49012,-10.51689 5.4663,-8.89039 5.9408,-11.08988 15.65867,-10.39676 -12.5649,-3.81677 -12.92552,1.72817 -21.82724,10.85883 -1.77466,1.95922 -9.36675,9.13067 -22.10247,-2.31963 -13.59933,-12.46687 -9.09153,-28.40856 -6.48174,-36.14375 z m -35.08889,38.87715 c 11.15087,-0.34193 13.5234,7.28236 13.5234,7.28236 3.72013,11.15456 15.69664,17.05068 22.42512,15.59976 l 10.55301,-4.04781 -7.11759,-5.08286 c -2.68569,1.09975 -5.58018,2.55991 -8.54109,2.58764 -10.23983,0.12938 -14.27312,-11.33016 -16.47483,-13.56662 0.70227,0.12015 -4.76403,-5.76673 -14.36802,-2.77247 z"
       style="display:inline;fill:#fc9816;fill-opacity:1;stroke:#000000;stroke-width:0.93650103"
       inkscape:connector-curvature="0"
       sodipodi:nodetypes="cccccccccccccccccccsccccccccccccccccccccccccccccccccccccccccccccccccccccccccccccccccccccccccccccccccccccccccccccccccccccccccccccc" />
    <path
       inkscape:connector-curvature="0"
       style="display:inline;fill:#fc9816;stroke:url(#meshgradient4598);stroke-width:0.12927784;stroke-opacity:1"
       d="m 108.72999,224.32378 c -0.0595,-1.31078 -0.10232,-2.25779 0.25526,-3.18906 1.11838,-2.91273 3.48395,-11.70201 3.9833,-13.57174 0.35302,-0.10671 0.67234,-0.40813 0.84156,-0.84883 0.28195,-0.73433 0.0416,-1.57362 -0.53706,-1.87438 l -6.58893,-3.42472 c -0.57862,-0.30076 -1.27631,0.0509 -1.55826,0.78526 -0.16922,0.44071 -0.14911,0.91857 0.0181,1.29568 -0.86374,1.68035 -4.91182,9.59494 -6.030245,12.5078 -0.35758,0.93128 -0.9925,1.52603 -1.8712,2.34915 -1.424175,1.33419 -3.37468,3.16131 -5.04466,7.51065 l -7.94187,20.68404 c -1.48177,3.85918 0.23887,6.26131 1.35583,6.99232 0.0283,0.0183 0.0572,0.0351 0.0868,0.0505 l 8.17635,4.24984 c 0.0296,0.0154 0.0596,0.0292 0.0902,0.0416 1.21327,0.48018 3.89918,0.36828 5.38091,-3.49074 l 7.941875,-20.68405 c 1.66998,-4.34934 1.53824,-7.25876 1.44193,-9.38326 z M 97.025115,244.71974 96.29,244.64884 c -0.24613,-0.0237 -0.49713,0.0509 -0.71627,0.21317 l -0.652935,0.48328 -0.53155,-0.59325 c -0.17847,-0.19933 -0.40801,-0.31864 -0.65469,-0.3403 l -0.73457,-0.0648 -0.12641,-0.88836 c -0.0423,-0.29829 -0.16214,-0.56556 -0.34158,-0.76301 l -0.53578,-0.58973 0.3268,-0.84614 c 0.0184,-0.0475 0.0339,-0.0961 0.048,-0.14509 l 5.03887,2.61907 c -0.0219,0.0451 -0.0428,0.0907 -0.0609,0.13839 z m -0.322995,-14.87077 0.735135,0.0709 c 0.24613,0.0238 0.49712,-0.0509 0.71625,-0.21316 l 0.65305,-0.48323 0.53168,0.59329 c 0.17846,0.19932 0.40801,0.31863 0.65469,0.34029 l 0.734455,0.0648 0.12631,0.88831 c 0.0425,0.29809 0.16214,0.56556 0.34157,0.763 l 0.53578,0.58973 -0.32653,0.84644 c -0.0501,0.12964 -0.0838,0.26575 -0.10222,0.40342 l -5.11358,-2.6579 c 0.0759,-0.1081 0.14053,-0.22813 0.19014,-0.35805 z m -6.240395,7.08263 1.81264,-4.72089 10.899455,5.66524 -1.81264,4.72089 z m 8.11291,-16.33141 c 1.03434,-0.96892 2.011215,-1.8841 2.634425,-3.50716 0.9223,-2.40207 4.15917,-8.8036 5.4739,-11.37834 l 3.83836,1.99508 c -0.77098,2.85735 -2.70918,9.9339 -3.63147,12.33598 -0.6232,1.62306 -0.55713,3.08034 -0.48733,4.62316 0.0911,2.01158 0.19443,4.29172 -1.20983,7.94902 l -0.99766,2.59836 -0.37476,-0.19479 -0.15484,-1.05229 0.53362,-1.38184 c 0.22349,-0.57808 0.12639,-1.244 -0.23976,-1.64679 l -0.87398,-0.96187 -0.20645,-1.45208 c -0.0867,-0.60896 -0.48725,-1.05327 -0.99069,-1.09719 l -1.2,-0.10592 -0.868515,-0.96924 c -0.36432,-0.40692 -0.91579,-0.45795 -1.36343,-0.12642 l -1.06753,0.78991 -1.199085,-0.11549 c -0.50212,-0.0483 -0.992975,0.31196 -1.214145,0.89124 l -0.52842,1.38421 -0.77675,0.56808 -0.37465,-0.19473 0.99767,-2.59836 c 1.404305,-3.65742 2.93282,-5.08923 4.28138,-6.3525 z m -3.74255,34.54747 -8.04832,-4.1833 c -0.3555,-0.26917 -1.24931,-1.20003 -0.4324,-3.32763 l 3.08916,-8.04546 0.5121,0.26616 0.10924,0.74194 -0.53357,1.38171 c -0.22337,0.57814 -0.12644,1.24412 0.23971,1.64691 l 0.87399,0.96188 0.20654,1.45214 c 0.0867,0.60895 0.48746,1.05305 0.99074,1.09706 l 1.20001,0.10591 0.86851,0.96925 c 0.0905,0.1011 0.19251,0.18009 0.30158,0.23678 0.33027,0.17151 0.72541,0.13873 1.06182,-0.11027 l 1.067415,-0.78996 1.198985,0.11544 c 0.50196,0.0484 0.99282,-0.31188 1.21409,-0.89112 l 0.52849,-1.38433 0.54775,-0.40045 0.512215,0.26623 -3.089155,8.04546 c -0.817065,2.12752 -2.00934,1.97411 -2.41896,1.84558 z"
       id="path4749" />
    <path
       inkscape:connector-curvature="0"
       style="display:inline;fill:#fc9816;stroke:url(#meshgradient63);stroke-width:0.13881151;stroke-opacity:1"
       d="m 389.72315,221.24874 c -1.00809,-0.83967 -1.73631,-1.44642 -2.1327,-2.37597 -1.2398,-2.90731 -5.78817,-10.83982 -6.75885,-12.52406 0.20421,-0.36638 0.23877,-0.83681 0.0512,-1.27669 -0.31259,-0.73295 -1.11987,-1.10215 -1.80315,-0.82426 l -7.78031,3.16408 c -0.68325,0.27786 -0.98365,1.09747 -0.67108,1.83044 0.18759,0.43991 0.55386,0.74731 0.96398,0.86385 0.5404,1.85925 3.10193,10.59958 4.34178,13.50703 0.39639,0.92955 0.32431,1.86178 0.2246,3.15195 -0.1616,2.09117 -0.38297,4.95504 1.4683,9.2963 l 8.80404,20.64563 c 1.64264,3.852 4.7793,4.04857 6.20846,3.61426 0.0361,-0.0113 0.0715,-0.0239 0.10646,-0.0381 l 9.65478,-3.92639 c 0.035,-0.0143 0.0691,-0.0298 0.10262,-0.047 1.32242,-0.68467 3.38897,-2.99745 1.74642,-6.84932 l -8.80406,-20.64557 c -1.85127,-4.34127 -4.08865,-6.20523 -5.72248,-7.56623 z m 5.58281,23.58404 -0.64001,0.56414 c -0.21426,0.18889 -0.36036,0.44855 -0.41676,0.74111 l -0.16824,0.87162 -0.85993,0.0402 c -0.28883,0.0135 -0.55988,0.12365 -0.77308,0.3144 l -0.63508,0.56778 -0.75212,-0.49737 c -0.25241,-0.16711 -0.54413,-0.24862 -0.83234,-0.23311 l -0.86074,0.0461 -0.35863,-0.84616 c -0.0202,-0.0476 -0.0433,-0.0935 -0.0679,-0.13841 l 5.94998,-2.41972 c 0.0154,0.0488 0.0323,0.0971 0.0527,0.14461 z m -11.15552,-9.81896 0.64002,-0.56413 c 0.21426,-0.1889 0.36034,-0.44855 0.41674,-0.74111 l 0.16835,-0.87168 0.86006,-0.0403 c 0.28882,-0.0134 0.55988,-0.12364 0.77307,-0.31438 l 0.63501,-0.56772 0.75198,0.49743 c 0.25244,0.16682 0.54414,0.24862 0.83237,0.23312 l 0.86073,-0.0461 0.35905,0.84614 c 0.055,0.1297 0.12769,0.2501 0.21385,0.35881 l -6.03821,2.4556 c -0.0185,-0.13657 -0.0548,-0.27179 -0.11027,-0.40124 z m 0.19816,10.00176 -2.00941,-4.71213 12.87027,-5.23402 2.00941,4.71211 z m -5.47766,-17.83536 c 0.11736,-1.51869 0.2282,-2.95309 -0.46265,-4.57314 -1.02243,-2.39761 -3.1241,-9.43596 -3.95914,-12.27751 l 4.5324,-1.84321 c 1.47709,2.58044 5.11229,8.99515 6.13473,11.39275 0.69084,1.62005 1.81157,2.5536 2.99797,3.54209 1.54698,1.28869 3.30046,2.74947 4.85716,6.39997 l 1.10598,2.59353 -0.44252,0.17996 -0.89497,-0.58489 -0.58573,-1.38182 c -0.24483,-0.57827 -0.81048,-0.94914 -1.39853,-0.91746 l -1.40398,0.0754 -1.22922,-0.81312 c -0.51556,-0.34093 -1.16159,-0.30872 -1.5965,0.0807 l -1.03753,0.92752 -1.405,0.0658 c -0.58963,0.0274 -1.06816,0.45202 -1.1833,1.04972 l -0.27506,1.42492 -1.04382,0.92027 c -0.43707,0.38539 -0.56573,1.03857 -0.31815,1.61575 l 0.59162,1.37909 -0.20505,1.03226 -0.44238,0.1799 -1.10599,-2.59352 c -1.55677,-3.65065 -1.38326,-5.89491 -1.2302,-7.87497 z m 22.32218,26.553 -9.5036,3.86488 c -0.48162,0.11346 -1.87874,0.22637 -2.78433,-1.89727 l -3.42451,-8.03054 0.60469,-0.24591 0.63107,0.41233 0.58568,1.3817 c 0.24498,0.57821 0.81053,0.94926 1.39859,0.91759 l 1.40399,-0.0754 1.22932,0.81308 c 0.51555,0.34093 1.16161,0.30842 1.59645,-0.0809 l 1.03754,-0.92752 1.405,-0.0658 c 0.1465,-0.007 0.28597,-0.0381 0.41477,-0.0905 0.38986,-0.1587 0.68193,-0.51002 0.76857,-0.9591 l 0.27505,-1.42484 1.0437,-0.92021 c 0.43701,-0.38519 0.56565,-1.03842 0.3182,-1.61562 l -0.59167,-1.37923 0.14475,-0.72782 0.60483,-0.24597 3.42451,8.03053 c 0.90543,2.1237 -0.16073,3.01257 -0.58259,3.26651 z"
       id="path4749-9" />
  </g>
</svg>
