<?xml version="1.0" encoding="UTF-8"?>
<!-- Generator: Adobe Illustrator 15.1.0, SVG Export Plug-In . SVG Version: 6.00 Build 0)  -->
<!DOCTYPE svg PUBLIC "-//W3C//DTD SVG 1.1//EN" "http://www.w3.org/Graphics/SVG/1.1/DTD/svg11.dtd">
<svg version="1.1" id="Calque_1" xmlns="http://www.w3.org/2000/svg" xmlns:xlink="http://www.w3.org/1999/xlink" x="0px" y="0px" width="100px" height="100px" viewBox="0 0 100 100" enable-background="new 0 0 100 100" xml:space="preserve">
<rect fill="#F6F6F6" width="100" height="100"/>
<path fill="#49494B" d="M84.448,100c0,0,0.25-11.594-1.844-16.745c-0.311-1.93-1.131-4.066-2.001-5.227  c-1.507-1.938-9.688-4.521-12.058-5.275c-1.399-0.322-2.261-1.078-3.337-1.938c-0.969-0.752-2.153-0.859-3.014-1.507  c-1.405-1.014-1.171-3.327-2.205-4.36c0.08-2.042,0.308-3.861,0.703-4.493c0.138-0.22,2.511-2.082,3.014-3.948  c0.424-1.572,0.872-4.469,1.004-5.342c0.07-0.057,0.127-0.108,0.156-0.146c0.015-0.023,0.036-0.063,0.06-0.113  c0.541-0.029,2.212-0.441,3.341-4.245c1.363-4.594,2.402-7.062-0.396-7.923c0.699-5.593,2.25-18.184-8.015-23.034  c-0.244-0.276-0.486-0.469-0.731-0.428c-0.431,0.072-2.513-1.292-2.798-1.794c-0.287-0.503-1.867-1.148-2.656-1.148  s-2.296-0.072-3.087-0.359c-0.789-0.287-3.229,0.143-4.234,0.143s-2.368-0.072-3.588-0.143c-1.22-0.072-4.521,1.866-5.455,2.225  c-0.934,0.359-2.727,0.574-3.947,1.004c-1.221,0.431-2.943,3.661-3.015,5.024c-0.071,1.364-1.219,4.521-1.219,5.311  c0,0.79-0.718,2.513-0.718,3.158s0.215,1.795-0.144,2.942c-0.359,1.148-0.144,2.584-0.072,3.445  c0.072,0.861,0.861,2.656,0.359,3.804c-0.502,1.148,0.574,3.015,0.574,3.23c0,0.061,0.104,0.006,0.285,0  c0.215,1.194,0.706,2.693,1.254,4.542c1.364,4.593,3.519,4.242,3.519,4.242s0.54,3.74,1.042,5.605  c0.503,1.866,2.877,3.729,3.015,3.948c0.273,0.436,0.486,1.521,0.629,2.857c-0.002,0.164,0.003,0.267,0.019,0.291  c0.005,0.008,0.009,0.027,0.015,0.042c0.032,0.337,0.059,0.686,0.083,1.045c-1.426,0.839-1,3.507-2.538,4.618  c-0.861,0.647-2.045,0.755-3.014,1.507c-1.077,0.86-1.938,1.616-3.337,1.938c-2.369,0.754-10.55,3.337-12.058,5.275  c-1.058,1.41-2.042,4.266-2.127,6.436C14.269,90.021,14.484,100,14.484,100H84.448z"/>
</svg>